# xmcd
#
# Track frame offsets: 
#        150
#        9067
#        19399
#        29263
#        42130
#        55047
#        68770
#        81196
#        91717
#        102065
#        112610
#        124982
#        135681
#        147509
#        159186
#        168359
#        179821
#        190727
#        202114
#        212598
#        223921
#        234254
#        247641
#        258910
#        269556
#
# Disc length: 3719 seconds
#
# Revision: 2
# Processed by: cddbd v1.5.2PL0 Copyright (c) Steve Scherf et al.
# Submitted via: ExactAudioCopyFreeDBPlugin 1.0
#
DISCID=4f0e8519
DTITLE=Various Artist - The Best of Doo Wop [Real Gone Music]
DYEAR=2017
DGENRE=Rhythm and Blues
TTITLE0=Donnie and The Dreamers - Count Every Star
TTITLE1=The Larks - It's Unbelievable
TTITLE2=The Chanters - No, No, No
TTITLE3=Dion - Runaround Sue
TTITLE4=The Rays - Magic Moon (Claire de Lune)
TTITLE5=The Sensations - Let Me In
TTITLE6=The Sheppards - Glitter in Your Eyes
TTITLE7=The Dovells - The Bristol Stomp
TTITLE8=The Chantels - Look in My Eyes
TTITLE9=The Carnations - Long Tall Girl
TTITLE10=The Duprees - You Belong to Me
TTITLE11=Gene Chandler - Duke of Earl
TTITLE12=The Volumes - I Love You
TTITLE13=The Donays - Devil in His Heart
TTITLE14=The Majors - A Wonderful Dream
TTITLE15=The Four Seasons - Sherry
TTITLE16=The Tams - Untie Me
TTITLE17=The Cookies - Chains
TTITLE18=The Orlons - Don't Hang Up
TTITLE19=The Delcos - Arabia
TTITLE20=The Del-Rios - There's a Love
TTITLE21=The Falcons - I Found a Love
TTITLE22=The Valentinos - Lookin' for a Love
TTITLE23=The Rivingtons - Papa Oom Mow Mow
TTITLE24=The Earls - Remember Then
EXTD=
EXTT0=
EXTT1=
EXTT2=
EXTT3=
EXTT4=
EXTT5=
EXTT6=
EXTT7=
EXTT8=
EXTT9=
EXTT10=
EXTT11=
EXTT12=
EXTT13=
EXTT14=
EXTT15=
EXTT16=
EXTT17=
EXTT18=
EXTT19=
EXTT20=
EXTT21=
EXTT22=
EXTT23=
EXTT24=
PLAYORDER=
